<?xml version="1.0" encoding="utf-8"?>
<!-- Generator: Adobe Illustrator 16.0.4, SVG Export Plug-In . SVG Version: 6.00 Build 0)  -->
<!DOCTYPE svg PUBLIC "-//W3C//DTD SVG 1.1//EN" "http://www.w3.org/Graphics/SVG/1.1/DTD/svg11.dtd">
<svg version="1.1" id="Layer_1" xmlns="http://www.w3.org/2000/svg" xmlns:xlink="http://www.w3.org/1999/xlink" x="0px" y="0px"
	 width="50px" height="50px" viewBox="0 0 50 50" enable-background="new 0 0 50 50" xml:space="preserve">
<g>
	<path fill="#FFFFFF" d="M32.689,8.369c-1.654-0.078-3.325-0.129-4.972,0.014c-3.867,0.339-6.498,1.867-6.814,6.773
		c-0.07,1.102-0.151,2.206-0.133,3.307c0.017,0.897-0.315,1.271-1.214,1.188c-0.456-0.045-0.953-0.103-1.371,0.03
		c-0.35,0.111-0.862,0.482-0.875,0.756c-0.078,1.777-0.039,3.56-0.039,5.48c0.702,0,1.201-0.002,1.699,0
		c1.782,0.007,1.786,0.007,1.787,1.828c0.002,4.517-0.002,9.032,0.002,13.545c0.002,1.966,0.008,1.968,2.025,1.973
		c1.244,0.004,2.492-0.068,3.73,0.018c1.349,0.094,1.87-0.341,1.839-1.781c-0.088-4.236-0.031-8.477-0.031-12.715
		c0-2.867,0-2.867,2.805-2.869c0.586,0,1.17,0,1.863,0c0.132-1.304,0.242-2.438,0.365-3.573c0.292-2.7,0.294-2.678-2.438-2.707
		c-2.983-0.032-2.564,0.477-2.585-2.659c-0.014-1.925,0.394-2.329,2.331-2.39c0.943-0.028,1.89-0.007,2.941-0.007
		c0-1.939,0.046-3.641-0.043-5.333C33.545,8.926,33.008,8.384,32.689,8.369z"/>
</g>
</svg>
