<?xml version="1.0" encoding="utf-8"?>
<!-- Generator: Adobe Illustrator 16.0.4, SVG Export Plug-In . SVG Version: 6.00 Build 0)  -->
<!DOCTYPE svg PUBLIC "-//W3C//DTD SVG 1.1//EN" "http://www.w3.org/Graphics/SVG/1.1/DTD/svg11.dtd">
<svg version="1.1" id="Layer_1" xmlns="http://www.w3.org/2000/svg" xmlns:xlink="http://www.w3.org/1999/xlink" x="0px" y="0px"
	 width="50px" height="50px" viewBox="0 0 50 50" enable-background="new 0 0 50 50" xml:space="preserve">
<g>
	<path fill-rule="evenodd" clip-rule="evenodd" fill="#FFFEFE" d="M25.424,9.624c0.315,0.274,0.607,0.519,0.881,0.782
		c1.076,1.037,1.874,2.244,2.211,3.715c0.438,1.906,0.283,3.746-0.725,5.465c-0.45,0.768-1.055,1.408-1.717,1.997
		c-0.377,0.336-0.779,0.644-1.163,0.971c-0.436,0.372-0.838,0.781-1.122,1.287c-0.497,0.885-0.365,1.858,0.341,2.588
		c0.423,0.437,0.919,0.786,1.397,1.155c1.052,0.814,2.085,1.651,2.989,2.634c0.8,0.87,1.393,1.86,1.644,3.025
		c0.422,1.95,0.082,3.774-0.971,5.463c-0.896,1.439-2.145,2.499-3.624,3.301c-1.325,0.719-2.743,1.167-4.223,1.428
		c-1.471,0.26-2.953,0.335-4.442,0.252c-1.355-0.077-2.687-0.287-3.973-0.735c-1.365-0.477-2.593-1.169-3.562-2.266
		c-0.771-0.872-1.254-1.882-1.388-3.042c-0.156-1.346,0.167-2.591,0.854-3.745c0.695-1.167,1.685-2.028,2.847-2.709
		c1.198-0.701,2.493-1.145,3.839-1.451c0.966-0.221,1.945-0.363,2.93-0.465c0.649-0.066,1.3-0.11,1.951-0.163
		c0.022-0.002,0.044-0.005,0.083-0.011c-0.158-0.209-0.308-0.404-0.455-0.602c-0.383-0.517-0.696-1.067-0.839-1.702
		c-0.183-0.805-0.118-1.588,0.216-2.347c0.047-0.108,0.089-0.218,0.145-0.356c-0.216,0.018-0.412,0.032-0.606,0.049
		c-2.092,0.173-4.045-0.215-5.752-1.496c-1.567-1.179-2.509-2.761-2.809-4.693c-0.369-2.379,0.343-4.469,1.815-6.326
		c0.923-1.164,2.121-1.97,3.457-2.585c1.278-0.591,2.625-0.952,4.015-1.154c0.868-0.127,1.743-0.182,2.621-0.18
		c2.961,0.003,5.921,0.001,8.882,0.001c0.051,0,0.101,0,0.193,0c-0.383,0.241-0.727,0.459-1.072,0.676
		c-0.619,0.39-1.241,0.778-1.86,1.171c-0.08,0.051-0.159,0.071-0.253,0.071c-0.858-0.003-1.717-0.002-2.575-0.002
		C25.558,9.624,25.511,9.624,25.424,9.624z M20.356,41.747c0.392-0.005,0.867-0.026,1.342-0.08c0.913-0.103,1.798-0.312,2.634-0.7
		c0.744-0.347,1.397-0.815,1.908-1.465c0.564-0.716,0.865-1.533,0.936-2.44c0.079-1.007-0.125-1.938-0.691-2.784
		c-0.366-0.547-0.823-1.012-1.313-1.445c-0.929-0.822-1.941-1.536-2.946-2.261c-0.106-0.077-0.217-0.112-0.342-0.12
		c-0.147-0.009-0.295-0.021-0.443-0.023c-1.371-0.009-2.728,0.133-4.07,0.41c-1.084,0.225-2.118,0.585-3.053,1.189
		c-1.322,0.854-2.13,2.03-2.238,3.634c-0.084,1.24,0.251,2.356,1.021,3.332c0.811,1.026,1.891,1.665,3.104,2.101
		C17.519,41.565,18.883,41.733,20.356,41.747z M24.618,18.081c-0.004-0.314-0.022-0.658-0.06-0.999
		c-0.133-1.183-0.422-2.328-0.887-3.425c-0.482-1.137-1.104-2.185-2.043-3.01c-1.065-0.938-2.294-1.367-3.708-1.073
		c-1.329,0.275-2.355,0.992-2.971,2.231c-0.394,0.793-0.527,1.646-0.539,2.52c-0.021,1.494,0.283,2.93,0.831,4.315
		c0.407,1.031,0.951,1.981,1.736,2.777c0.932,0.945,2.046,1.473,3.392,1.442c0.631-0.014,1.23-0.179,1.801-0.444
		c0.997-0.461,1.74-1.166,2.123-2.216C24.539,19.524,24.613,18.822,24.618,18.081z"/>
	<path fill-rule="evenodd" clip-rule="evenodd" fill="#FFFEFE" d="M38.232,27.499c0,0.738-0.003,1.478,0.002,2.217
		c0.001,0.115-0.026,0.153-0.148,0.151c-0.676-0.005-1.354-0.005-2.029,0c-0.121,0.002-0.15-0.033-0.15-0.15
		c0.004-1.473,0.001-2.946,0.006-4.419c0-0.134-0.037-0.164-0.166-0.164c-1.459,0.005-2.918,0.002-4.376,0.007
		c-0.12,0-0.149-0.03-0.148-0.149c0.006-0.687,0.006-1.372,0-2.059c-0.001-0.122,0.036-0.147,0.151-0.146
		c1.459,0.004,2.918,0.001,4.376,0.006c0.134,0,0.163-0.037,0.163-0.166c-0.004-1.458-0.002-2.917-0.006-4.375
		c0-0.123,0.025-0.161,0.155-0.159c0.677,0.008,1.354,0.006,2.03,0c0.112,0,0.143,0.028,0.143,0.143
		c-0.004,1.468-0.001,2.936-0.006,4.404c0,0.13,0.037,0.153,0.158,0.153c1.463-0.005,2.926-0.001,4.39-0.007
		c0.136,0,0.163,0.04,0.163,0.167c-0.006,0.677-0.007,1.354,0,2.03c0,0.124-0.027,0.158-0.156,0.158
		c-1.463-0.006-2.926-0.002-4.389-0.007c-0.129,0-0.168,0.03-0.166,0.163C38.235,26.031,38.232,26.765,38.232,27.499z"/>
</g>
</svg>
