<?xml version="1.0" encoding="utf-8"?>
<!-- Generator: Adobe Illustrator 16.0.4, SVG Export Plug-In . SVG Version: 6.00 Build 0)  -->
<!DOCTYPE svg PUBLIC "-//W3C//DTD SVG 1.1//EN" "http://www.w3.org/Graphics/SVG/1.1/DTD/svg11.dtd">
<svg version="1.1" id="Layer_1" xmlns="http://www.w3.org/2000/svg" xmlns:xlink="http://www.w3.org/1999/xlink" x="0px" y="0px"
	 width="50px" height="50px" viewBox="0 0 50 50" enable-background="new 0 0 50 50" xml:space="preserve">
<g>
	<path fill-rule="evenodd" clip-rule="evenodd" fill="#FFFFFF" d="M30.354,26.108c0-0.509,0-0.787,0-1.066
		c0-4.081,0.02-8.163-0.019-12.243c-0.006-0.716,0.211-0.863,0.882-0.854c2.789,0.036,5.579,0.031,8.368,0.003
		c0.604-0.007,0.855,0.071,0.854,0.786c-0.029,8.633-0.027,17.265-0.002,25.896c0.001,0.669-0.177,0.824-0.828,0.814
		c-2.877-0.037-5.754-0.031-8.631-0.002c-0.566,0.006-0.891-0.164-1.211-0.638c-2.834-4.208-5.697-8.397-8.56-12.587
		c-0.17-0.251-0.268-0.58-0.673-0.745c0,0.331,0,0.612,0,0.893c0,4.111-0.01,8.222,0.012,12.333
		c0.003,0.559-0.124,0.751-0.721,0.745c-2.877-0.032-5.754-0.027-8.632-0.005c-0.539,0.005-0.755-0.09-0.754-0.704
		c0.021-8.69,0.021-17.382,0.001-26.073c-0.002-0.601,0.194-0.718,0.746-0.714c2.907,0.026,5.814,0.028,8.72-0.002
		c0.566-0.006,0.891,0.165,1.21,0.638c2.835,4.208,5.7,8.397,8.557,12.591C29.848,25.429,30.037,25.674,30.354,26.108z"/>
</g>
</svg>
